<svg width="50" height="17" viewBox="0 0 50 17" fill="none" xmlns="http://www.w3.org/2000/svg">
    <path d="M45.8063 16.5563H41.6342V3.98616H38.2773V0.4375H49.1631V3.98616H45.8063V16.5563Z" fill="#1D1F2E" />
    <path
        d="M0.433594 0.4375H6.21216C8.46004 0.467472 10.3363 1.23475 11.8469 2.74533C13.3754 4.25591 14.1547 6.1741 14.1787 8.49392C14.1487 10.8197 13.3754 12.7199 11.8469 14.2005C10.3363 15.7411 8.46004 16.5204 6.21216 16.5503H0.433594V0.4375ZM4.60567 13.0077H5.51681C6.75764 13.0197 7.80066 12.66 8.65186 11.9227C9.49706 11.1914 9.93465 10.0525 9.96462 8.49991C9.95264 7.03129 9.53902 5.91035 8.73578 5.13708C7.92654 4.38179 6.86554 3.99815 5.55877 3.98616H4.60567V13.0077Z"
        fill="#1D1F2E" />
    <path
        d="M26.1691 0C28.5009 0.0299718 30.503 0.785261 32.1695 2.28385C33.8779 3.77645 34.759 5.74859 34.795 8.20028C34.765 10.8198 33.9618 12.9298 32.3793 14.5303C30.7908 16.1488 28.7167 16.97 26.1631 17C23.6095 16.97 21.5475 16.1488 19.9769 14.5303C18.3765 12.9358 17.5612 10.8258 17.5312 8.20028C17.5732 5.74859 18.4544 3.77645 20.1808 2.28385C21.8592 0.785261 23.8553 0.0299718 26.1691 0ZM26.1691 4.04619C24.9403 4.05818 23.9033 4.47779 23.058 5.30501C22.2009 6.10825 21.7633 7.07934 21.7513 8.21227C21.7633 9.59697 22.2009 10.7239 23.058 11.5931C23.9033 12.4743 24.9403 12.9238 26.1691 12.9358C27.4339 12.9238 28.4769 12.4743 29.2982 11.5931C30.1434 10.7239 30.569 9.59697 30.587 8.21227C30.575 7.07934 30.1434 6.10825 29.2982 5.30501C28.4769 4.48378 27.4339 4.06417 26.1691 4.04619Z"
        fill="#1D1F2E" />
</svg>