<svg width="16" height="16" viewBox="0 0 16 16" fill="none" xmlns="http://www.w3.org/2000/svg">
<path fill-rule="evenodd" clip-rule="evenodd" d="M11.164 10.133L16 14.97L14.969 16L10.133 11.164C9.03131 12.0397 7.66537 12.5163 6.25801 12.516C5.43579 12.5174 4.62142 12.3562 3.86168 12.0418C3.10195 11.7274 2.41183 11.266 1.83101 10.684C0.65919 9.50899 0.000789981 7.91746 1.21194e-05 6.258C-0.00160851 5.43568 0.159321 4.62116 0.473548 3.86125C0.787776 3.10133 1.2491 2.41102 1.83101 1.83C3.00643 0.6583 4.59834 0.000247782 6.25801 0C7.92801 0 9.49301 0.658 10.684 1.831C11.8564 3.00609 12.5152 4.59805 12.516 6.258C12.516 7.68 12.036 9.031 11.164 10.133ZM6.25801 1.458C4.97801 1.458 3.76801 1.956 2.86201 2.862C0.996012 4.729 0.996012 7.787 2.86201 9.653C3.30717 10.0999 3.8365 10.4542 4.41939 10.6954C5.00229 10.9365 5.6272 11.0598 6.25801 11.058C7.53801 11.058 8.74701 10.56 9.65301 9.653C11.52 7.787 11.52 4.729 9.65301 2.863C9.20797 2.41618 8.67881 2.06196 8.09609 1.82081C7.51338 1.57965 6.88865 1.45634 6.25801 1.458Z" fill="#EA1F25"/>
</svg>
